<mxfile host="app.diagrams.net" modified="2023-10-20T13:01:12.513Z" agent="Mozilla/5.0 (Windows NT 10.0; Win64; x64; rv:109.0) Gecko/20100101 Firefox/118.0" version="22.0.6" etag="ft2jv-vWGzzrUvSy6M_F" type="github">
  <diagram name="Page-1" id="A2HgGOYnbQZKl4bB1F2a">
    <mxGraphModel>
      <root>
        <mxCell id="0" />
        <mxCell id="1" parent="0" />
      </root>
    </mxGraphModel>
  </diagram>
</mxfile>
